<?xml version="1.0" standalone="no"?>
<!DOCTYPE svg PUBLIC "-//W3C//DTD SVG 20010904//EN"
 "http://www.w3.org/TR/2001/REC-SVG-20010904/DTD/svg10.dtd">
<svg version="1.0" xmlns="http://www.w3.org/2000/svg"
 width="225.000000pt" height="225.000000pt" viewBox="0 0 225.000000 225.000000"
 preserveAspectRatio="xMidYMid meet">
<metadata>
Created by potrace 1.14, written by Peter Selinger 2001-2017
</metadata>
<g transform="translate(0.000000,225.000000) scale(0.100000,-0.100000)"
fill="#000000" stroke="none">
<path d="M1324 1855 c-58 -30 -80 -104 -49 -165 27 -52 56 -60 231 -58 140 1
164 -1 205 -19 62 -28 92 -72 97 -142 6 -92 -45 -157 -142 -181 -73 -19 -95
-32 -116 -65 -39 -63 -14 -159 48 -184 15 -6 56 -13 92 -15 135 -6 223 -91
223 -216 0 -144 -122 -239 -271 -210 -52 11 -64 10 -96 -5 -68 -33 -89 -126
-41 -183 42 -51 163 -66 296 -38 215 46 349 211 349 431 0 140 -48 256 -141
338 l-57 49 24 35 c45 67 67 142 68 233 2 187 -97 325 -273 381 -90 29 -399
39 -447 14z"/>
<path d="M1016 1849 c-16 -4 -38 -17 -50 -28 -11 -11 -142 -193 -291 -405
l-270 -385 -70 -2 c-53 -2 -59 -3 -25 -6 64 -5 80 -12 57 -24 -9 -6 -17 -14
-17 -19 0 -5 -10 -20 -23 -34 -12 -13 -29 -37 -37 -53 -8 -15 -22 -33 -30 -40
-8 -7 -10 -13 -5 -13 6 0 3 -5 -5 -10 -10 -6 -21 -4 -35 8 -15 13 -14 11 3 -9
l23 -26 -65 -92 c-73 -104 -83 -134 -62 -184 19 -47 59 -72 113 -71 57 1 68
13 195 195 l103 148 152 1 153 0 32 31 33 31 -33 -26 c-32 -25 -38 -26 -168
-26 -74 0 -134 3 -134 7 0 3 11 21 26 40 14 18 23 33 20 33 -3 0 8 14 24 32
16 17 28 34 26 36 -2 2 8 16 23 32 21 24 36 30 81 33 l55 3 -57 2 c-32 1 -58
5 -58 8 0 11 215 313 223 314 4 0 7 -200 7 -445 0 -489 0 -489 60 -520 55 -28
120 -12 154 39 14 23 16 89 16 690 l0 666 -27 30 c-33 35 -76 50 -117 39z"/>
<path d="M235 1010 c-3 -6 1 -7 9 -4 18 7 21 14 7 14 -6 0 -13 -4 -16 -10z"/>
<path d="M867 990 c7 -8 16 -27 22 -40 6 -17 10 -19 10 -8 1 9 -9 27 -21 40
-13 13 -18 17 -11 8z"/>
<path d="M200 980 c-6 -11 -8 -20 -6 -20 3 0 10 9 16 20 6 11 8 20 6 20 -3 0
-10 -9 -16 -20z"/>
<path d="M181 913 c-1 -23 3 -44 7 -47 4 -2 6 12 4 32 -5 56 -10 62 -11 15z"/>
</g>
</svg>
